#Comment line ignore any data following # character 
#Hierarchical Translation and Rotation (.htr) file 
[Header]	
#Header keywords are followed by a single value 
FileType HTR		#Single word string
DataType HTRS		#Translation followed by rotation and scale data
FileVersion 1		#integer
NumSegments 14		#integer
NumFrames 7		#integer
DataFrameRate 30		#integer, data frame rate in this file
EulerRotationOrder ZYX
CalibrationUnits mm
RotationUnits Degrees
GlobalAxisofGravity Y
BoneLengthAxis Y
ScaleFactor 1.00
[SegmentNames&Hierarchy]
#CHILD	PARENT
MASTER GLOBAL
weapon MASTER
barrel_root weapon
middle_left_energyLow_part1 weapon
middle_left_energyLow_part2 weapon
middle_left_root weapon
middle_right_energyLow_part1 weapon
middle_top weapon
barrel1_top_root barrel_root
barrel2_top_root barrel_root
barrel3_top_root barrel_root
barrel1_top_back barrel1_top_root
barrel2_top_back barrel2_top_root
barrel3_top_back barrel3_top_root
[BasePosition]
#SegmentName Tx, Ty, Tz, Rx, Ry, Rz, BoneLength
MASTER 0.000000 0.000000 0.000000 -90.000000 0.000000 0.000000 10.000000 
weapon 0.000000 0.000000 0.000000 0.000000 0.000000 0.000000 10.000000 
barrel_root 0.000000 0.000000 0.000000 0.000000 0.000000 0.000000 10.000000 
middle_left_energyLow_part1 0.000000 0.000000 0.000000 0.000000 0.000000 0.000000 10.000000 
middle_left_energyLow_part2 0.000000 0.000000 0.000000 0.000000 0.000000 0.000000 10.000000 
middle_left_root 0.000000 0.000000 0.000000 0.000000 0.000000 0.000000 10.000000 
middle_right_energyLow_part1 0.000000 0.000000 0.000000 0.000000 0.000000 0.000000 10.000000 
middle_top 0.000000 0.000000 0.000000 0.000000 0.000000 0.000000 10.000000 
barrel1_top_root 0.000000 0.000000 0.000000 0.000000 0.000000 0.000000 10.000000 
barrel2_top_root 0.000000 0.000000 0.000000 0.000000 0.000000 0.000000 10.000000 
barrel3_top_root 0.000000 0.000000 0.000000 0.000000 0.000000 0.000000 10.000000 
barrel1_top_back 0.000000 0.000000 0.000000 0.000000 0.000000 0.000000 10.000000 
barrel2_top_back 0.000000 0.000000 0.000000 0.000000 0.000000 0.000000 10.000000 
barrel3_top_back 0.000000 0.000000 0.000000 0.000000 0.000000 0.000000 10.000000 
#Beginning of Data. Separated by tabs
#Fr	Tx	Ty	Tz	Rx	Ry	Rz	SF
[MASTER]
1 0.000000 0.000000 0.000000 0.000000 -0.000000 0.000000 0.000000
2 0.000000 0.000000 0.000000 0.000000 -0.000000 0.000000 0.000000
3 0.000000 0.000000 0.000000 0.000000 -0.000000 0.000000 0.000000
4 0.000000 0.000000 0.000000 0.000000 -0.000000 0.000000 0.000000
5 0.000000 0.000000 0.000000 0.000000 -0.000000 0.000000 0.000000
6 0.000000 0.000000 0.000000 0.000000 -0.000000 0.000000 0.000000
7 0.000000 0.000000 0.000000 0.000000 -0.000000 0.000000 0.000000
[weapon]
1 -0.000057 -104.980545 30.104597 0.000000 0.000000 -0.000020 109.211723
2 -0.000057 -104.980545 30.104597 0.000000 0.000000 -0.000020 109.211723
3 -0.000057 -104.980545 30.104597 0.000000 0.000000 -0.000020 109.211723
4 -0.000057 -104.980545 30.104597 0.000000 0.000000 -0.000020 109.211723
5 -0.000057 -104.980545 30.104597 0.000000 0.000000 -0.000020 109.211723
6 -0.000057 -104.980545 30.104597 0.000000 0.000000 -0.000020 109.211723
7 -0.000057 -104.980545 30.104597 0.000000 0.000000 -0.000020 109.211723
[barrel_root]
1 -0.000000 259.831787 -55.258617 0.000000 -0.000000 0.000000 265.642761
2 -0.000000 259.831787 -55.258617 0.000000 -0.000000 0.000000 265.642761
3 -0.000000 259.831787 -55.258617 0.000000 -0.000000 0.000000 265.642761
4 -0.000000 259.831787 -55.258617 0.000000 -0.000000 0.000000 265.642761
5 -0.000000 259.831787 -55.258617 0.000000 -0.000000 0.000000 265.642761
6 -0.000000 259.831787 -55.258617 0.000000 -0.000000 0.000000 265.642761
7 -0.000000 259.831787 -55.258617 0.000000 -0.000000 0.000000 265.642761
[middle_left_energyLow_part1]
1 -152.219711 -30.653076 -39.080353 0.001660 0.001660 0.001660 160.117859
2 -148.151138 -30.653076 -27.693708 0.001559 -7.694662 0.001559 153.802856
3 -138.722687 -30.653076 -1.401367 0.001410 -24.617811 0.001410 142.075897
4 -128.100189 -30.653076 27.996525 0.001287 -41.540943 0.001287 134.659103
5 -120.449486 -30.653076 48.698578 0.001252 -49.235004 0.001252 133.488724
6 -116.496826 -30.653076 59.144592 0.001252 -49.196934 0.001252 134.198380
7 -113.874275 -30.653076 66.092369 0.001253 -49.001194 0.001253 135.185669
[middle_left_energyLow_part2]
1 -169.986191 -28.308716 -78.007126 0.001660 0.001660 0.001660 189.160767
2 -169.742645 -28.681334 -63.138275 0.001773 7.078493 0.001773 183.362000
3 -168.140808 -29.491043 -31.509779 0.002111 22.465170 0.002111 173.591248
4 -163.874008 -30.275497 -2.588953 0.002648 37.372490 0.002648 166.667328
5 -151.880722 -31.001205 20.013885 0.003530 51.161114 0.003530 156.299026
6 -135.929626 -31.701889 39.908909 0.005312 64.473610 0.005312 145.170929
7 -127.959503 -32.015915 48.459774 0.006909 70.438728 0.006909 140.524033
[middle_left_root]
1 -69.244308 -30.653076 -78.054581 0.003432 -50.001465 179.996567 108.751564
2 -73.945503 -30.652847 -73.391647 0.003343 -48.890732 179.996658 108.599579
3 -85.710258 -30.652847 -61.719814 0.003141 -46.113350 179.996872 109.978096
4 -101.054214 -30.652847 -46.487232 0.002914 -42.498116 179.997086 115.380295
5 -116.398163 -30.652847 -31.254652 0.002721 -38.889988 179.997269 124.358284
6 -128.305115 -30.653000 -19.413298 0.002590 -36.111362 179.997406 133.336746
7 -133.243347 -30.653000 -14.467850 0.002542 -34.999905 179.997467 137.487137
[middle_right_energyLow_part1]
1 142.814392 -29.615173 -39.080353 0.001660 -0.001660 179.998337 150.997620
2 138.080444 -29.615173 -25.752028 0.001812 -9.284978 179.998184 143.549423
3 127.523285 -29.615133 3.612326 0.002302 -28.703962 179.997696 130.966766
4 116.966125 -29.615097 32.976688 0.003106 -45.592484 179.996887 125.082336
5 111.100990 -29.615173 48.421780 0.003370 -49.233242 179.996628 124.760406
6 107.597122 -29.615097 57.572632 0.003362 -49.135330 179.996643 125.573898
7 105.024681 -29.615173 64.237976 0.003339 -48.847271 179.996658 126.624481
[middle_top]
1 -3.220463 49.870148 59.132381 0.000000 -0.000000 0.000000 77.421196
2 -3.220482 48.128815 59.132381 0.000000 -0.000000 0.000000 76.311157
3 -3.220482 43.275070 59.132381 0.000000 -0.000000 0.000000 73.346725
4 -3.220520 35.864788 59.132381 0.000000 -0.000000 0.000000 69.233620
5 -3.220520 26.453779 59.132381 0.000000 -0.000000 0.000000 64.859947
6 -3.220482 15.597757 59.132534 0.000000 -0.000000 0.000000 61.239841
7 -3.220482 3.852533 59.132534 0.000000 -0.000000 0.000000 59.345345
[barrel1_top_root]
1 0.000081 96.240509 0.000132 0.000000 -0.000000 0.000000 96.240509
2 0.000081 96.240509 0.000132 0.000000 -0.000000 0.000000 96.240509
3 0.000081 96.240509 0.000132 0.000000 -0.000000 0.000000 96.240509
4 0.000081 96.240509 0.000132 0.000000 -0.000000 0.000000 96.240509
5 0.000081 96.240509 0.000132 0.000000 -0.000000 0.000000 96.240509
6 0.000081 96.240509 0.000132 0.000000 -0.000000 0.000000 96.240509
7 0.000081 96.240509 0.000132 0.000000 -0.000000 0.000000 96.240509
[barrel2_top_root]
1 -0.000009 124.139923 0.000132 179.998779 -54.999702 179.998779 124.139923
2 -0.000009 124.139923 0.000132 179.998779 -54.999702 179.998779 124.139923
3 -0.000009 124.139923 0.000132 179.998779 -54.999687 179.998779 124.139923
4 -0.000009 124.139923 0.000132 179.998779 -54.999702 179.998779 124.139923
5 -0.000009 124.139923 0.000132 179.998779 -54.999702 179.998779 124.139923
6 -0.000009 124.139923 0.000132 179.998779 -54.999702 179.998779 124.139923
7 -0.000009 124.139923 0.000132 179.998779 -54.999702 179.998779 124.139923
[barrel3_top_root]
1 0.000101 69.591400 0.000123 179.996094 54.997871 179.996094 69.591400
2 0.000101 69.591400 0.000123 179.996094 54.997871 179.996094 69.591400
3 0.000101 69.591400 0.000123 179.996094 54.997871 179.996094 69.591400
4 0.000101 69.591400 0.000123 179.996094 54.997871 179.996094 69.591400
5 0.000101 69.591400 0.000123 179.996094 54.997871 179.996094 69.591400
6 0.000101 69.591400 0.000123 179.996094 54.997871 179.996094 69.591400
7 0.000101 69.591400 0.000123 179.996094 54.997871 179.996094 69.591400
[barrel1_top_back]
1 -3.343935 98.041893 186.671844 0.000000 -0.000000 0.000000 210.878571
2 -3.343935 98.041893 186.671844 0.000000 -0.000000 0.000000 210.878571
3 -3.343935 98.041893 186.671844 0.000000 -0.000000 0.000000 210.878571
4 -3.343935 98.041893 186.671844 0.000000 -0.000000 0.000000 210.878571
5 -3.343935 98.041893 186.671844 0.000000 -0.000000 0.000000 210.878571
6 -3.343935 98.041893 186.671844 0.000000 -0.000000 0.000000 210.878571
7 -3.343935 98.041893 186.671844 0.000000 -0.000000 0.000000 210.878571
[barrel2_top_back]
1 3.886122 70.142326 185.630630 -0.000096 -0.000041 0.000007 198.478668
2 3.886122 70.142326 185.630630 -0.000096 -0.000041 0.000007 198.478668
3 3.886122 70.142326 185.630630 -0.000096 -0.000041 0.000007 198.478668
4 3.886122 70.142326 185.630630 -0.000096 -0.000041 0.000007 198.478668
5 3.886122 70.142326 185.630630 -0.000096 -0.000041 0.000007 198.478668
6 3.886122 70.142326 185.630630 -0.000096 -0.000041 0.000007 198.478668
7 3.886122 70.142326 185.630630 -0.000096 -0.000041 0.000007 198.478668
[barrel3_top_back]
1 -0.050068 125.495209 180.152344 -0.000049 0.000003 0.000007 219.553894
2 -0.050068 125.495209 180.152344 -0.000049 0.000003 0.000007 219.553894
3 -0.050068 125.495209 180.152344 -0.000049 0.000003 0.000007 219.553894
4 -0.050068 125.495209 180.152344 -0.000049 0.000003 0.000007 219.553894
5 -0.050068 125.495209 180.152344 -0.000049 0.000003 0.000007 219.553894
6 -0.050068 125.495209 180.152344 -0.000049 0.000003 0.000007 219.553894
7 -0.050068 125.495209 180.152344 -0.000049 0.000003 0.000007 219.553894
